<svg xmlns="http://www.w3.org/2000/svg" xmlns:xlink="http://www.w3.org/1999/xlink" width="26.5" height="27.25" viewBox="0 0 26.5 27.25" fill="none">
<path d="M23.1143 1.80006L25.6465 17.4475C25.5108 17.3045 25.2465 17.3045 24.9786 17.1653L1.52505 17.1653C1.2572 17.3083 1.12505 17.3083 0.8572 17.4475L3.52505 1.80006C3.6572 0.95355 4.4572 0.25 5.2572 0.25L21.2501 0.25C22.0465 0.25 22.8465 0.95355 23.1143 1.80006ZM14.329 3.8167C12.6895 3.8167 11.26 4.78639 10.6305 6.15732L10.3762 6.15732L10.2058 6.1625C9.07573 6.23118 8.07636 6.97575 7.74077 7.96295C6.12104 8.3642 4.8131 9.66826 4.60866 11.1729C4.35878 13.012 6.02146 14.5167 8.3035 14.5167L17.8466 14.5167L18.0493 14.5051C20.4629 14.3257 22.1622 12.6885 21.8882 10.6714C21.6519 8.93264 20.1933 7.49482 18.4039 6.99326C17.9988 5.18764 16.2824 3.8167 14.329 3.8167ZM11.9088 6.99483L11.5693 7.69529L10.5342 7.69529C9.97521 7.69529 9.45843 8.00973 9.26474 8.40632L9.22828 8.49247L9.00253 9.12158L8.33775 9.2776C7.26854 9.52852 6.4429 10.3237 6.32704 11.1315C6.21328 11.9246 7.04592 12.6727 8.40961 12.7291L8.57577 12.7325L17.5444 12.7334C19.265 12.6686 20.3189 11.726 20.1693 10.6825C20.0319 9.72495 19.1526 8.82532 17.962 8.45049L17.7898 8.40056L17.0659 8.20834L16.8972 7.49581C16.6452 6.43188 15.527 5.6001 14.2692 5.6001C13.2948 5.6001 12.4133 6.10609 11.9805 6.85938L11.9088 6.99483ZM0.25 19.6184C0.38572 18.7831 0.925012 18.2263 1.60356 18.0871L24.8964 18.0871C25.7071 18.2263 26.25 18.7831 26.25 19.6184L26.25 25.3295C26.25 26.1648 25.5714 27 24.625 27L1.875 27C1.06429 27 0.25 26.1648 0.25 25.3295L0.25 19.6184ZM23.0037 22.5416C23.0001 23.7983 22.0537 24.7727 20.8359 24.7727C19.618 24.7727 18.668 23.7983 18.668 22.5416C18.668 21.2888 19.6144 20.3106 20.8359 20.3106C22.0537 20.3106 23.0037 21.285 23.0037 22.5416ZM3.50001 20.8712L3.50001 24.2159C3.50001 24.4943 3.22859 24.7727 2.95716 24.7727C2.68573 24.7727 2.4143 24.4943 2.4143 24.2159L2.4143 20.8712C2.4143 20.5928 2.68573 20.3144 2.95716 20.3144C3.22859 20.3144 3.50001 20.5928 3.50001 20.8712ZM5.66771 20.8712L5.66771 24.2159C5.66771 24.4943 5.39629 24.7727 5.12486 24.7727C4.85343 24.7727 4.582 24.4943 4.582 24.2159L4.582 20.8712C4.582 20.5928 4.85343 20.3144 5.12486 20.3144C5.39629 20.3144 5.66771 20.5928 5.66771 20.8712ZM7.83571 20.8712L7.83571 24.2159C7.83571 24.4943 7.56429 24.7727 7.29286 24.7727C7.02143 24.7727 6.75 24.4943 6.75 24.2159L6.75 20.8712C6.75 20.5928 7.02143 20.3144 7.29286 20.3144C7.56429 20.3144 7.83571 20.5928 7.83571 20.8712ZM10 20.8712L10 24.2159C10 24.4943 9.72859 24.7727 9.45716 24.7727C9.18573 24.7727 8.9143 24.4943 8.9143 24.2159L8.9143 20.8712C8.9143 20.5928 9.18573 20.3144 9.45716 20.3144C9.72859 20.3144 10 20.5928 10 20.8712ZM12.1677 20.8712L12.1677 24.2159C12.1677 24.4943 11.8963 24.7727 11.6249 24.7727C11.3534 24.7727 11.082 24.4943 11.082 24.2159L11.082 20.8712C11.082 20.5928 11.3534 20.3144 11.6249 20.3144C11.8963 20.3144 12.1677 20.5928 12.1677 20.8712ZM14.3357 20.8712L14.3357 24.2159C14.3357 24.4943 14.0643 24.7727 13.7929 24.7727C13.5214 24.7727 13.25 24.4943 13.25 24.2159L13.25 20.8712C13.25 20.5928 13.5214 20.3144 13.7929 20.3144C14.0643 20.3144 14.3357 20.5928 14.3357 20.8712ZM22.0215 22.5454C22.0215 23.0011 21.7908 23.4221 21.4162 23.65C21.0416 23.8778 20.5801 23.8778 20.2055 23.65C19.8309 23.4221 19.6001 23.0011 19.6001 22.5454C19.6001 22.0898 19.8309 21.6687 20.2055 21.4409C20.5801 21.213 21.0416 21.213 21.4162 21.4409C21.7908 21.6687 22.0215 22.0898 22.0215 22.5454Z" stroke="url(#linear_border_2BF49D21-7D47-4D40-8BFD-C70BB92F2A32)" stroke-width="0.5"    fill-rule="evenodd"  fill="url(#linear_fill_2BF49D21-7D47-4D40-8BFD-C70BB92F2A32)" >
</path>
<defs>
<linearGradient id="linear_fill_2BF49D21-7D47-4D40-8BFD-C70BB92F2A32" x1="13.25" y1="0.25" x2="13.25" y2="26.689453125" gradientUnits="userSpaceOnUse">
<stop offset="0" stop-color="#E6F7FF"  />
<stop offset="1" stop-color="#00BFFF"  />
</linearGradient>
<linearGradient id="linear_border_2BF49D21-7D47-4D40-8BFD-C70BB92F2A32" x1="13.25" y1="0.25" x2="13.25" y2="27" gradientUnits="userSpaceOnUse">
<stop offset="0" stop-color="#FFFFFF"  />
<stop offset="1" stop-color="#FFFFFF" stop-opacity="0.03" />
</linearGradient>
</defs>
</svg>
